# xmcd
#
# Track frame offsets:
# 150
# 21497
# 36888
# 56078
# 73078
# 94898
# 110431
# 126077
# 142239
# 158762
# 178181
# 193178
# 204549
# 219974
# 240347
# 257000
# 268722
#
# Disc length: 3785 seconds
#
#
# Revision: 2
# Processed by: cddbd v1.5.2PL0 Copyright (c) Steve Scherf et al.
# Submitted via: FreeRIP 2.945 
#
DISCID=050ec711
DTITLE=Various Artist - Prvni velky cesky country zpevnik C - CH
DYEAR=2002
DGENRE=Country
TTITLE0=B.Surkova/Cervena reka
TTITLE1=Drobek/Cervena reka
TTITLE2=M.Tucny/Dest
TTITLE3=Drobek/Dik za ten stop
TTITLE4=J.Stahlavsky/Divka z rocky mountain
TTITLE5=Drobek/Divoke kone
TTITLE6=P.Cernocka/Dobrou noc
TTITLE7=J.Mateju/Doney gal
TTITLE8=Drobek/Dvojnik
TTITLE9=J.Zoch/Eldorado
TTITLE10=J.Mateju/Eveline
TTITLE11=J.Zoch,V.Hrubec/Hardy
TTITLE12=Montgomery/Ho, ho, Watanay
TTITLE13=Drobek/Hvezda loo
TTITLE14=P.Spaleny/Hrac
TTITLE15=J.Trckova,L.Musil/Hribe
TTITLE16=Drobek/Chtel bych byt medvidkem
EXTD=YEAR: 2002
EXTT0=
EXTT1=
EXTT2=
EXTT3=
EXTT4=
EXTT5=
EXTT6=
EXTT7=
EXTT8=
EXTT9=
EXTT10=
EXTT11=
EXTT12=
EXTT13=
EXTT14=
EXTT15=
EXTT16=
PLAYORDER=
